<?xml version="1.0" encoding="utf-8"?>
<!-- Generator: Adobe Illustrator 21.0.2, SVG Export Plug-In . SVG Version: 6.00 Build 0)  -->
<!DOCTYPE svg PUBLIC "-//W3C//DTD SVG 1.1//EN" "http://www.w3.org/Graphics/SVG/1.1/DTD/svg11.dtd">
<svg version="1.1" id="Layer_1" xmlns="http://www.w3.org/2000/svg" xmlns:xlink="http://www.w3.org/1999/xlink" x="0px" y="0px"
	 viewBox="0 0 372 157" enable-background="new 0 0 372 157" xml:space="preserve">
<rect fill="#F1B71C" width="370.7" height="157"/>
<g display="none">
	<path display="inline" fill="#6D6E71" d="M377.8,203.5c0.1,0,0.1,0,0.2,0.1l0.9,3.2c0,0.1,0,0.2-0.1,0.2l-1.1,0.3
		c-0.1,0-0.1,0-0.2-0.1l-0.5-1.9c0,0,0,0,0,0l-1,0.3c0,0,0,0,0,0l0.5,2c0,0.1,0,0.1-0.2,0.2l-0.9,0.2c-0.2,0.1-0.3,0-0.3-0.1
		l-0.5-1.9c0,0,0,0,0,0l-1.1,0.3c0,0,0,0,0,0l0.5,2c0,0.1-0.1,0.1-0.2,0.2l-0.9,0.2c-0.1,0-0.2,0-0.2-0.1l-0.9-3.2
		c0-0.1,0-0.1,0.1-0.2L377.8,203.5z"/>
	<path display="inline" fill="#6D6E71" d="M373.1,209.8c-0.1-0.2,0-0.2,0.2-0.3l5.7-1.6c0.1,0,0.1,0,0.1,0.1l0.3,1.1
		c0,0.2,0,0.2-0.2,0.3l-4.4,1.2c-0.1,0-0.1,0,0,0.1l0.5,1.7c0,0.1,0,0.2-0.1,0.2l-1,0.3c-0.1,0-0.2,0-0.2-0.1L373.1,209.8z"/>
	<path display="inline" fill="#6D6E71" d="M380,211.9c0.1,0,0.1,0,0.2,0.1l0.9,3.2c0,0.1,0,0.2-0.1,0.2l-1.1,0.3
		c-0.1,0-0.1,0-0.2-0.1l-0.5-1.9c0,0,0,0,0,0l-1,0.3c0,0,0,0,0,0l0.5,2c0,0.1,0,0.1-0.1,0.2l-0.9,0.2c-0.2,0.1-0.3,0-0.3-0.1
		l-0.5-1.9c0,0,0,0,0,0l-1.1,0.3c0,0,0,0,0,0l0.5,2c0,0.1-0.1,0.1-0.2,0.2l-0.9,0.2c-0.1,0-0.2,0-0.2-0.1l-0.9-3.2
		c0-0.1,0-0.1,0.1-0.2L380,211.9z"/>
	<path display="inline" fill="#6D6E71" d="M377.3,220.5c0.2,0.9,0.5,1.2,0.8,1.5c0.1,0.1,0.1,0.1,0,0.2l-1,0.3c-0.1,0-0.2,0-0.2-0.1
		c-0.4-0.5-0.6-0.9-0.8-1.6c-0.5-1.8,0.5-3.6,2.3-4.1c1.7-0.5,3.6,0.6,4,2.4c0.2,0.6,0.2,1.2,0.1,1.7c0,0.2-0.1,0.2-0.2,0.2l-1,0.3
		c-0.1,0-0.2,0-0.1-0.2c0.1-0.4,0.2-0.9-0.1-1.7c-0.3-1-1.3-1.6-2.3-1.3C377.6,218.5,377,219.5,377.3,220.5z"/>
	<path display="inline" fill="#6D6E71" d="M377.2,225c0-0.1,0-0.1,0.1-0.2l4.5-1.2c0.1,0,0.1,0,0.1-0.1l-0.5-1.7
		c0-0.1,0-0.1,0.1-0.1l1.1-0.3c0.1,0,0.1,0,0.1,0.1l1.4,5c0,0.1,0,0.1-0.1,0.1l-1.1,0.3c-0.1,0-0.1,0-0.1-0.1l-0.5-1.7
		c0-0.1,0-0.1-0.1-0.1l-4.5,1.2c-0.1,0-0.2,0-0.2-0.1L377.2,225z"/>
	<path display="inline" fill="#6D6E71" d="M384.8,228.8c0.6,2.1-0.2,2.7-1.2,3c-0.7,0.2-1.5,0.2-2.1-0.4l-1.7,2.6
		c0,0.1-0.2,0.1-0.2,0l-0.4-1.4c0-0.1,0-0.2,0.1-0.2l1.5-2.3l-0.1-0.4c0-0.1-0.1-0.1-0.2-0.1l-1.9,0.5c-0.1,0-0.1,0-0.2-0.1
		l-0.3-1.1c0-0.1,0-0.1,0.1-0.2l5.8-1.6c0.1,0,0.2,0,0.2,0.1L384.8,228.8z M382.1,229.1c-0.1,0-0.1,0-0.1,0.1l0.1,0.3
		c0.2,0.6,0.5,0.9,0.9,0.8c0.5-0.1,0.6-0.5,0.4-1.1l-0.1-0.3c0-0.1,0-0.1-0.1-0.1L382.1,229.1z"/>
	<path display="inline" fill="#6D6E71" d="M379.8,234.6c0-0.1,0-0.2,0.1-0.2l5.8-1.6c0.1,0,0.2,0,0.2,0.1l0.3,1.1
		c0,0.1,0,0.1-0.1,0.2l-5.8,1.6c-0.1,0-0.2,0-0.2-0.1L379.8,234.6z"/>
	<path display="inline" fill="#6D6E71" d="M382.5,239.6c0.2,0.9,0.5,1.2,0.8,1.5c0.1,0.1,0.1,0.1,0,0.2l-1,0.3c-0.1,0-0.2,0-0.2-0.1
		c-0.4-0.5-0.6-0.9-0.8-1.6c-0.5-1.8,0.5-3.6,2.3-4.1c1.7-0.5,3.6,0.6,4,2.4c0.2,0.6,0.2,1.2,0.1,1.7c0,0.1-0.1,0.2-0.2,0.2l-1,0.3
		c-0.1,0-0.2,0-0.1-0.2c0.1-0.4,0.2-0.9-0.1-1.7c-0.3-1-1.3-1.6-2.3-1.3C382.8,237.6,382.2,238.6,382.5,239.6z"/>
	<path display="inline" fill="#6D6E71" d="M384,245.2c0.2,0.9,0.5,1.2,0.8,1.5c0.1,0.1,0.1,0.1,0,0.2l-1,0.3c-0.1,0-0.2,0-0.2-0.1
		c-0.4-0.5-0.6-0.9-0.8-1.6c-0.5-1.8,0.5-3.6,2.3-4.1c1.7-0.5,3.6,0.6,4,2.4c0.2,0.6,0.2,1.2,0.1,1.7c0,0.1-0.1,0.2-0.2,0.2l-1,0.3
		c-0.1,0-0.2,0-0.1-0.2c0.1-0.4,0.2-0.9-0.1-1.7c-0.3-1-1.3-1.6-2.3-1.3C384.3,243.2,383.7,244.2,384,245.2z"/>
	<path display="inline" fill="#6D6E71" d="M383.5,248.3c0-0.1,0-0.2,0.1-0.2l5.8-1.6c0.1,0,0.2,0,0.2,0.1l0.3,1.1
		c0,0.1,0,0.1-0.1,0.2l-5.8,1.6c-0.1,0-0.2,0-0.2-0.1L383.5,248.3z"/>
	<path display="inline" fill="#6D6E71" d="M384.5,252c0-0.1,0-0.1,0.1-0.2l4.5-1.2c0.1,0,0.1,0,0.1-0.1l-0.5-1.7
		c0-0.1,0-0.1,0.1-0.1l1.1-0.3c0.1,0,0.1,0,0.2,0.1l1.4,5c0,0.1,0,0.1-0.1,0.1l-1.1,0.3c-0.1,0-0.1,0-0.1-0.1l-0.5-1.7
		c0-0.1,0-0.1-0.1-0.1l-4.5,1.2c-0.1,0-0.2,0-0.2-0.1L384.5,252z"/>
	<path display="inline" fill="#6D6E71" d="M385.5,255.8c0-0.1,0-0.2,0.1-0.2l5.8-1.6c0.1,0,0.2,0,0.2,0.1l0.3,1.1
		c0,0.1,0,0.1-0.1,0.2l-5.8,1.6c-0.1,0-0.2,0-0.2-0.1L385.5,255.8z"/>
	<path display="inline" fill="#6D6E71" d="M391.4,258.8c0.1,0,0.1,0,0.1-0.1l-0.4-1.5c0-0.1,0-0.2,0.1-0.3l0.8-0.2
		c0.1,0,0.2,0,0.2,0.1l0.9,3.5c0.1,0.2-0.1,0.2-0.2,0.2l-5.1-0.9c-0.1,0-0.1,0-0.1,0.1l0.5,2c0.1,0.2,0,0.2-0.2,0.3l-0.8,0.2
		c-0.1,0-0.2,0-0.2-0.1l-1.1-4.1c0-0.2,0.1-0.2,0.2-0.2L391.4,258.8z"/>
	<path display="inline" fill="#6D6E71" d="M393.4,261.3c0.1,0,0.1,0,0.2,0.1l0.9,3.2c0,0.1,0,0.2-0.1,0.2l-1.1,0.3
		c-0.1,0-0.1,0-0.2-0.1l-0.5-1.9c0,0,0,0,0,0l-1,0.3c0,0,0,0,0,0l0.5,2c0,0.1,0,0.1-0.1,0.2l-0.9,0.2c-0.2,0.1-0.3,0-0.3-0.1
		l-0.5-1.9c0,0,0,0,0,0l-1.1,0.3c0,0,0,0,0,0l0.5,2c0,0.1-0.1,0.1-0.2,0.2l-0.9,0.2c-0.1,0-0.2,0-0.2-0.1l-0.9-3.2
		c0-0.1,0-0.2,0.1-0.2L393.4,261.3z"/>
	<path display="inline" fill="#6D6E71" d="M394.7,265.7c0.1,0,0.1,0,0.1,0.1l-2.2,4.2l3.1-0.8c0.1,0,0.1,0,0.1,0l0.3,1.2
		c0,0.1,0,0.1-0.1,0.1l-6,1.6c-0.1,0-0.1,0-0.1-0.1l2.2-4.2l-3,0.8c-0.1,0-0.1,0-0.1-0.1l-0.3-1.2c0-0.1,0-0.1,0.1-0.1L394.7,265.7z
		"/>
	<path display="inline" fill="#6D6E71" d="M391.4,274.5c-0.5,0.1-1-0.2-1.1-0.6c-0.1-0.5,0.1-0.9,0.6-1.1c0.5-0.1,1,0.1,1.1,0.6
		C392.2,273.9,391.9,274.4,391.4,274.5z"/>
	<path display="inline" fill="#6D6E71" d="M392.9,278.3c0.2,0.9,0.5,1.2,0.8,1.5c0.1,0.1,0.1,0.1,0,0.2l-1,0.3c-0.1,0-0.2,0-0.2-0.1
		c-0.4-0.5-0.6-0.9-0.8-1.6c-0.5-1.8,0.5-3.6,2.3-4.1c1.7-0.5,3.6,0.6,4,2.4c0.2,0.6,0.2,1.2,0.1,1.7c0,0.2-0.1,0.2-0.2,0.2l-1,0.3
		c-0.1,0-0.2,0-0.1-0.2c0.1-0.4,0.2-0.9-0.1-1.7c-0.3-1-1.3-1.6-2.3-1.3C393.3,276.2,392.7,277.2,392.9,278.3z"/>
	<path display="inline" fill="#6D6E71" d="M399.5,282.5c0.5,1.8-0.5,3.6-2.3,4.1c-1.7,0.5-3.5-0.6-4-2.4c-0.5-1.8,0.5-3.6,2.3-4.1
		C397.2,279.7,399,280.7,399.5,282.5z M394.5,283.9c0.3,1,1.3,1.6,2.3,1.3c1-0.3,1.6-1.3,1.3-2.3c-0.3-1-1.3-1.6-2.3-1.3
		C394.8,281.8,394.2,282.9,394.5,283.9z"/>
	<path display="inline" fill="#6D6E71" d="M395.7,293.2c0-0.1,0-0.2,0.1-0.2l2.7-0.7c0.1,0,0-0.1,0-0.1l-1.9-1.1
		c-0.1-0.1-0.1-0.1-0.1-0.2l1-1.9c0.1-0.1,0-0.1-0.1-0.1l-2.6,0.7c-0.1,0-0.1,0-0.2-0.1l-0.3-1.1c0-0.1,0-0.2,0.1-0.2l5.8-1.6
		c0.1,0,0.1,0.1,0.1,0.1l-2,3.6c-0.1,0.1-0.1,0.1,0,0.2l3.5,2.1c0.1,0,0.1,0.1,0,0.2l-5.8,1.6c-0.1,0-0.1,0-0.2-0.1L395.7,293.2z"/>
</g>
<g display="none">
	<path display="inline" fill="#FFFFFF" d="M353.6,343.9l1.9-0.9c0.1-0.1,0.2,0,0.2,0.1c0.5,1.5,0.2,3.4-1.4,4.7
		c-2.1,1.8-4.9,1.4-6.6-0.5c-1.8-2-1.5-4.8,0.5-6.5c1.7-1.4,3.4-1.4,4.8-0.7c0.2,0.1,0.1,0.1,0.1,0.2l-1,1.8c0,0.1-0.1,0.1-0.1,0
		c-0.8-0.3-1.5-0.3-2.2,0.3c-1,0.8-1,2.2-0.1,3.2c1.1,1.2,2.4,1.1,3.2,0.4c0.7-0.6,0.9-1.3,0.7-2
		C353.5,343.9,353.5,343.9,353.6,343.9z"/>
	<path display="inline" fill="#FFFFFF" d="M357.1,339.3c1.1,1.3,2.1,2.5,2.8,3.3c0.1,0.1,0.1,0.1,0,0.2c-0.7,0.6-1,0.9-1.7,1.4
		c-0.1,0.1-0.1,0.1-0.2,0c-1.1-1.2-1.9-2.2-2.8-3.3c-0.9-1.1-1.8-2.1-2.8-3.3c-0.1-0.1-0.1-0.1,0-0.2c0.6-0.5,1-0.8,1.7-1.4
		c0.1-0.1,0.1-0.1,0.2,0C354.9,336.8,356,338,357.1,339.3z"/>
	<path display="inline" fill="#FFFFFF" d="M364.5,338.7c0.1,0.1,0.1,0.1,0,0.2c-0.7,0.6-1,0.9-1.7,1.4c-0.1,0.1-0.1,0.1-0.2,0
		c-1.1-1.2-4.5-5.2-4.5-5.2l-1.7,1.5c-0.1,0.1-0.1,0-0.1,0c-0.5-0.6-0.5-0.6-1.1-1.3c-0.1-0.1-0.1-0.1,0-0.2l5.3-4.5
		c0.1-0.1,0.1,0,0.2,0c0.6,0.7,0.6,0.7,1.1,1.3c0.1,0.1,0,0.1,0,0.1l-1.7,1.4C360,333.5,363.8,337.9,364.5,338.7z"/>
	<path display="inline" fill="#FFFFFF" d="M366.2,331.6c1.1,1.3,2.1,2.5,2.8,3.3c0.1,0.1,0.1,0.1,0,0.2c-0.7,0.6-1,0.9-1.7,1.4
		c-0.1,0.1-0.1,0.1-0.2,0c-1.1-1.2-1.9-2.2-2.8-3.3c-0.9-1.1-1.8-2.1-2.8-3.3c-0.1-0.1-0.1-0.1,0-0.2c0.6-0.5,1-0.8,1.7-1.4
		c0.1-0.1,0.1-0.1,0.2,0C364.1,329,365.1,330.3,366.2,331.6z"/>
	<path display="inline" fill="#FFFFFF" d="M368.4,326.5c-0.5,0.5-2,1.7-2.5,2.1c-0.1,0.1-0.1,0.1-0.2,0l-1.1-1.3
		c-0.1-0.1-0.1-0.1,0-0.3c1.7-1.4,3.1-2.6,4.8-4.1c0,0,0.2,0.1,0.2,0.1c0.9,3.1,1.6,7.4,1.6,7.4c0.4-0.3,2-1.7,2.5-2.2
		c0.1-0.1,0.2-0.1,0.2,0l1.1,1.3c0.1,0.1,0.1,0.1,0,0.2c-1.8,1.5-3.9,3.3-5.1,4.3c-0.1,0.1-0.2-0.1-0.2-0.2
		C369.1,331.5,368.4,326.5,368.4,326.5z"/>
	<path display="inline" fill="#FFFFFF" d="M376.2,328.9c-0.1,0.1-0.1,0.1-0.2,0c-1.5-1.7-3.9-4.6-5.6-6.5c-0.1-0.1-0.1-0.1,0-0.2
		l4.5-3.8c0.1-0.1,0.1-0.1,0.2,0c0.4,0.5,0.7,0.8,1,1.2c0.1,0.1,0.1,0.2,0,0.2l-2.9,2.4l1,1.1l2.8-2.4c0.1-0.1,0.1-0.1,0.2,0.1
		c0.4,0.5,0.7,0.8,1,1.2c0.1,0.1,0.1,0.1,0,0.2l-2.8,2.4l1,1.1l2.9-2.5c0.1-0.1,0.1-0.1,0.2,0c0.4,0.5,0.8,0.9,1.1,1.3
		c0.1,0.1,0.1,0.1,0,0.2L376.2,328.9z"/>
	<path display="inline" fill="#FFFFFF" d="M376.1,317.2c-0.1-0.1,0-0.2,0-0.2c2.3-0.2,6.7,0,6.7,0l-2.6-3c-0.1-0.1-0.1-0.1,0-0.2
		c0.6-0.5,0.9-0.8,1.5-1.3c0.1-0.1,0.1-0.1,0.2,0c1.7,1.9,4,4.6,5.7,6.7c0.1,0.1,0.1,0.2,0,0.2c-2.5,0.2-6.7,0-6.7,0l2.6,3
		c0.1,0.1,0.1,0.1,0,0.2c-0.6,0.5-0.9,0.8-1.5,1.3c-0.1,0.1-0.2,0-0.2,0C379.7,321.4,378.3,319.8,376.1,317.2z"/>
</g>
<g display="none">
	<path display="inline" fill="#FFFFFF" d="M296.2,316.9c-0.1-0.1-0.1-0.1,0-0.2c1.5-1.8,4.1-4.7,5.7-6.6c0.1-0.1,0.1-0.1,0.2,0
		l4.6,4c0.1,0.1,0.1,0.1,0,0.2c-0.4,0.5-0.7,0.8-1.1,1.2c-0.1,0.1-0.2,0.1-0.2,0l-2.9-2.5l-1,1.1l2.8,2.5c0.1,0.1,0.1,0.1,0,0.2
		c-0.4,0.5-0.7,0.8-1.1,1.2c-0.1,0.1-0.1,0.1-0.2,0.1l-2.8-2.5l-1,1.2l3,2.5c0.1,0.1,0.1,0.1,0,0.2c-0.4,0.5-0.8,0.9-1.1,1.3
		c-0.1,0.1-0.1,0.1-0.2,0L296.2,316.9z"/>
	<path display="inline" fill="#FFFFFF" d="M306.6,325.7c-0.1,0.1-0.1,0.1-0.2,0c-0.6-0.6-3.7-3.2-4.3-3.7c-0.1-0.1-0.1-0.1,0-0.2
		c1.1-1.3,2-2.3,2.9-3.3c1-1.1,1.8-2.1,2.9-3.4c0.1-0.1,0.1-0.1,0.2,0c0.6,0.5,1,0.9,1.6,1.4c0.1,0.1,0.1,0.1,0,0.2
		c-0.9,1.1-4.5,5.2-4.5,5.2l2.6,2.2c0.1,0.1,0.1,0.1,0,0.2C307.5,324.6,307.2,324.9,306.6,325.7z"/>
	<path display="inline" fill="#FFFFFF" d="M307.4,326.6c-0.1-0.1-0.1-0.1,0-0.2c1.5-1.8,4.1-4.7,5.7-6.6c0.1-0.1,0.1-0.1,0.2,0
		l4.6,4c0.1,0.1,0.1,0.1,0,0.2c-0.4,0.5-0.7,0.8-1.1,1.2c-0.1,0.1-0.2,0.1-0.2,0l-2.9-2.5l-1,1.1l2.8,2.5c0.1,0.1,0.1,0.1,0,0.2
		c-0.4,0.5-0.7,0.8-1.1,1.2c-0.1,0.1-0.1,0.1-0.2,0.1l-2.8-2.5l-1,1.2l3,2.5c0.1,0.1,0.1,0.1,0,0.2c-0.4,0.5-0.8,0.9-1.1,1.3
		c-0.1,0.1-0.1,0.1-0.2,0L307.4,326.6z"/>
	<path display="inline" fill="#FFFFFF" d="M320.2,333.3l1.2,1.7c0.1,0.1,0,0.2,0,0.2c-1.4,0.7-3.4,0.7-5-0.6
		c-2.2-1.9-2.2-4.8-0.5-6.7c1.8-2.1,4.7-2.3,6.7-0.5c1.7,1.4,1.9,3.2,1.5,4.7c-0.1,0.2-0.1,0.2-0.2,0.2l-2-0.7c-0.1,0-0.1-0.1,0-0.1
		c0.2-0.9,0-1.6-0.7-2.2c-1-0.9-2.4-0.6-3.3,0.4c-1.1,1.3-0.8,2.6,0.1,3.3c0.7,0.6,1.5,0.7,2.2,0.4
		C320.1,333.2,320.2,333.2,320.2,333.3z"/>
	<path display="inline" fill="#FFFFFF" d="M323.8,340.5c-0.1,0.1-0.1,0.1-0.2,0c-0.7-0.6-1-0.9-1.7-1.4c-0.1-0.1-0.1-0.1,0-0.2
		c1.1-1.3,4.6-5.3,4.6-5.3l-1.8-1.5c-0.1-0.1-0.1-0.1,0-0.1c0.5-0.6,0.5-0.6,1.1-1.3c0.1-0.1,0.1-0.1,0.2,0l5.4,4.6
		c0.1,0.1,0.1,0.1,0,0.2c-0.6,0.7-0.6,0.7-1.1,1.3c-0.1,0.1-0.1,0.1-0.1,0l-1.7-1.5C328.4,335.2,324.4,339.8,323.8,340.5z"/>
	<path display="inline" fill="#FFFFFF" d="M335.6,338.9c1.6,1.4,1.5,3.1,0.4,4.4c-0.8,0.9-1.7,1.3-2.6,1.1c-0.1,0.6-0.4,2.2-0.6,3.6
		c-0.1,0.3-0.1,0.4-0.3,0.3l-1.8-1.6c-0.1-0.1-0.1-0.1,0-0.4c0.2-1,0.5-2.8,0.5-2.8l-1.2-1c0,0-1,1.1-1.7,1.9
		c-0.1,0.1-0.1,0.1-0.2,0c-0.7-0.6-1.1-0.9-1.7-1.4c-0.1-0.1-0.1-0.1,0-0.2c1.1-1.3,2-2.3,2.9-3.3c1-1.1,1.8-2.1,2.9-3.4
		c0.1-0.1,0.1,0,0.2,0L335.6,338.9z M332.2,342.1c0.6,0.5,1.2,0.3,1.7-0.3c0.5-0.5,0.5-1.2,0-1.7l-1-0.9l-1.7,2L332.2,342.1z"/>
	<path display="inline" fill="#FFFFFF" d="M338.3,347.3c-1.1,1.3-2.2,2.6-2.9,3.3c-0.1,0.1-0.1,0.1-0.2,0c-0.7-0.6-1-0.9-1.7-1.5
		c-0.1-0.1-0.1-0.1,0-0.2c1.1-1.3,2-2.3,2.9-3.3c1-1.1,1.8-2.1,2.9-3.4c0.1-0.1,0.1-0.1,0.2,0c0.6,0.6,1,0.9,1.7,1.5
		c0.1,0.1,0.1,0.1,0,0.2C340.5,344.7,339.4,346,338.3,347.3z"/>
	<path display="inline" fill="#FFFFFF" d="M343.6,353.6l1.2,1.7c0.1,0.1,0,0.2,0,0.2c-1.4,0.7-3.4,0.7-5-0.6
		c-2.2-1.9-2.2-4.8-0.5-6.7c1.8-2.1,4.7-2.3,6.7-0.5c1.7,1.5,1.9,3.2,1.5,4.7c-0.1,0.2-0.1,0.2-0.2,0.2l-2-0.7c-0.1,0-0.1-0.1,0-0.1
		c0.2-0.9,0-1.6-0.7-2.2c-1-0.9-2.4-0.6-3.3,0.5c-1.1,1.3-0.8,2.6,0.1,3.3c0.7,0.6,1.5,0.7,2.2,0.4
		C343.5,353.5,343.6,353.5,343.6,353.6z"/>
</g>
<g>
	<path fill="#FFFFFF" d="M89.9,59.2c-0.6,0-0.6-0.1-0.6-0.8c0-10,0-26.3,0-37.3c0-0.5-0.1-0.6,0.5-0.6h25.7c0.6,0,0.6,0.1,0.6,0.7
		c0,2.8,0,4.5,0,6.9c0,0.5-0.2,0.8-0.6,0.8l-16.3-0.2v6.4h15.9c0.5,0,0.6,0.1,0.6,0.8c0,2.8,0,4.7,0,6.9c0,0.7-0.1,0.8-0.6,0.8H99.2
		v6.6l16.7-0.2c0.6,0,0.6,0,0.6,0.7c0,2.8,0,5,0,7.3c0,0.7-0.1,0.8-0.6,0.8H89.9z"/>
	<path fill="#FFFFFF" d="M147.6,58.7c0,0.5,0,0.5-0.5,0.5c-3.6,0-20.7,0-24.1,0c-0.5,0-0.5,0.1-0.5-0.5c0-7.1,0-12.9,0-18.7
		c0-6.3,0-11.8,0-18.9c0-0.6,0-0.5,0.5-0.5c3.4,0,5.7,0,9.2,0c0.5,0,0.5,0.1,0.5,0.5c0,6,0,29.1,0,29.1l14.3-0.3
		c0.5,0,0.5,0.1,0.5,0.6C147.6,52.6,147.6,54.2,147.6,58.7z"/>
	<path fill="#FFFFFF" d="M152.9,59.2c-0.6,0-0.6-0.1-0.6-0.8c0-10,0-26.3,0-37.3c0-0.5-0.1-0.6,0.5-0.6h25.7c0.6,0,0.6,0.1,0.6,0.7
		c0,2.8,0,4.5,0,6.9c0,0.5-0.2,0.8-0.6,0.8l-16.3-0.2v6.4h15.9c0.5,0,0.6,0.1,0.6,0.8c0,2.8,0,4.7,0,6.9c0,0.7-0.1,0.8-0.6,0.8
		h-15.9v6.6l16.7-0.2c0.6,0,0.6,0,0.6,0.7c0,2.8,0,5,0,7.3c0,0.7-0.1,0.8-0.6,0.8H152.9z"/>
	<path fill="#FFFFFF" d="M212.6,45.3l8.5,2.3c0.6,0.1,0.6,0.4,0.5,0.7c-2.6,6.2-8.9,11.8-17.8,11.8c-12.1,0-20.2-9.2-20.2-20.1
		c0-11.7,8.8-20.3,19.9-20.3c9.4,0,15.2,5.1,17.7,10.9c0.3,0.7,0.1,0.9-0.2,1l-8.5,3.3c-0.3,0.1-0.4,0-0.5-0.3
		c-1.7-3.4-4.4-5.2-8.3-5.2c-5.7,0-9.3,4.5-9.3,10.6c0,7.1,4.7,10.4,9.5,10.4c3.9,0,6.6-1.9,8-4.8C212,45.4,212.1,45.2,212.6,45.3z"
		/>
	<path fill="#FFFFFF" d="M244,58.7c0,0.5-0.1,0.5-0.5,0.5c-3.8,0-5.9,0-9.4,0c-0.6,0-0.6,0.1-0.6-0.5c0-7.1,0-29.9,0-29.9l-10,0.1
		c-0.4,0-0.4-0.1-0.4-0.4c0-3.2,0-3.5,0-7.3c0-0.5,0-0.6,0.5-0.6h30.1c0.4,0,0.5,0.1,0.5,0.6c0,3.9,0,4.2,0,7.3
		c0,0.3-0.1,0.4-0.4,0.4l-9.7-0.1C244,28.8,244,54.2,244,58.7z"/>
	<path fill="#FFFFFF" d="M277.4,20.6c8.8,0,13.4,6,13.4,13c0,5.2-1.8,8.9-5.3,10.6c1.5,2.3,4.7,8.1,8,13.4c0.7,1.1,0.5,1.5-0.1,1.5
		h-10.1c-0.5,0-0.7-0.1-1.2-1.1c-1.9-3.7-6.1-10.3-6.1-10.3l-6.5,0.1c0,0,0,6.3,0,10.8c0,0.5-0.1,0.5-0.5,0.5c-3.6,0-5.9,0-9.3,0
		c-0.5,0-0.5,0.1-0.5-0.5c0-7.1,0-12.9,0-18.7c0-6.3,0-11.8,0-18.9c0-0.6,0.3-0.5,0.5-0.5H277.4z M275.3,40c3.1-0.1,4.8-2.4,4.8-5.7
		c0-3-1.5-5.3-4.8-5.3h-5.6v11.2L275.3,40z"/>
	<path fill="#FFFFFF" d="M309.3,39.9c0,7.3,0,14.3,0,18.7c0,0.5-0.1,0.5-0.6,0.5c-3.8,0-5.9,0-9.5,0c-0.5,0-0.5,0.1-0.5-0.5
		c0-7.1,0-12.9,0-18.7c0-6.3,0-11.8,0-18.9c0-0.6,0-0.5,0.5-0.5c3.6,0,5.7,0,9.5,0c0.5,0,0.6,0.1,0.6,0.5
		C309.3,25.5,309.3,32.6,309.3,39.9z"/>
	<path fill="#FFFFFF" d="M343.7,45.3l8.5,2.3c0.6,0.1,0.6,0.4,0.5,0.7c-2.6,6.2-8.9,11.8-17.8,11.8c-12.1,0-20.2-9.2-20.2-20.1
		c0-11.7,8.8-20.3,19.9-20.3c9.4,0,15.2,5.1,17.7,10.9c0.3,0.7,0.1,0.9-0.2,1l-8.5,3.3c-0.3,0.1-0.4,0-0.5-0.3
		c-1.7-3.4-4.4-5.2-8.3-5.2c-5.7,0-9.3,4.5-9.3,10.6c0,7.1,4.7,10.4,9.5,10.4c3.9,0,6.6-1.9,8-4.8C343.2,45.4,343.3,45.2,343.7,45.3
		z"/>
	<path fill="#231F20" d="M123.6,100.2l10.6,2.8c0.7,0.1,0.8,0.5,0.6,0.9c-3.2,7.4-11.1,14.1-22,14.1c-15,0-25-11-25-24.1
		c0-14,10.8-24.3,24.6-24.3c11.6,0,18.7,6.1,21.9,13.1c0.4,0.8,0.1,1.1-0.2,1.2l-10.5,4c-0.4,0.1-0.5,0-0.6-0.3
		c-2-4.1-5.4-6.2-10.3-6.2c-7,0-11.5,5.4-11.5,12.7c0,8.5,5.8,12.4,11.8,12.4c4.8,0,8.2-2.3,9.9-5.7
		C123,100.3,123.1,100,123.6,100.2z"/>
	<path fill="#231F20" d="M154,93.8c0,8.7,0,17.2,0,22.5c0,0.5-0.1,0.6-0.7,0.6c-4.6,0-7.3,0-11.7,0c-0.6,0-0.6,0.1-0.6-0.6
		c0-8.5,0-15.4,0-22.5c0-7.6,0-14.1,0-22.6c0-0.7,0-0.6,0.6-0.6c4.4,0,7,0,11.7,0c0.6,0,0.7,0.1,0.7,0.6C154,76.5,154,84.9,154,93.8
		z"/>
	<path fill="#231F20" d="M186.1,116.2c0,0.5-0.1,0.6-0.6,0.6c-4.7,0-7.3,0-11.6,0c-0.7,0-0.7,0.1-0.7-0.6c0-8.5,0-35.9,0-35.9
		l-12.4,0.1c-0.5,0-0.5-0.1-0.5-0.5c0-3.8,0-4.2,0-8.8c0-0.5,0-0.7,0.6-0.7H198c0.5,0,0.6,0.1,0.6,0.7c0,4.6,0,5,0,8.8
		c0,0.4-0.1,0.5-0.5,0.5l-12-0.1C186.1,80.4,186.1,110.9,186.1,116.2z"/>
	<path fill="#231F20" d="M218,93.8c0,8.7,0,17.2,0,22.5c0,0.5-0.1,0.6-0.7,0.6c-4.6,0-7.3,0-11.7,0c-0.6,0-0.6,0.1-0.6-0.6
		c0-8.5,0-15.4,0-22.5c0-7.6,0-14.1,0-22.6c0-0.7,0-0.6,0.6-0.6c4.4,0,7,0,11.7,0c0.6,0,0.7,0.1,0.7,0.6C218,76.5,218,84.9,218,93.8
		z"/>
	<path fill="#231F20" d="M244.5,80.8c-3.7,0.1-14-0.1-17.7,0.1c-0.6,0-0.6,0-0.6-0.6v-8.8c0-0.7,0.1-0.9,1.1-0.9
		c11.7,0,21.5,0,33.7,0c0.4,0,0.4,0.9,0.3,1.2c-6.9,15.4-19.4,34.7-19.4,34.7c2.7,0,14.1-0.1,18.1-0.2c0.6,0,0.9,0.3,0.9,0.8v9.1
		c0,0.6-0.1,0.8-0.7,0.8c-12.3,0-27.3,0-35.6,0c-0.5,0-0.5-0.9-0.3-1.4C230.1,103.1,244.5,80.8,244.5,80.8z"/>
	<path fill="#231F20" d="M268.2,116.9c-0.7,0-0.8-0.1-0.8-1c0-12,0-31.6,0-44.7c0-0.6-0.1-0.7,0.6-0.7h31.8c0.7,0,0.8,0.1,0.8,0.9
		c0,3.4,0,5.4,0,8.3c0,0.6-0.2,1-0.8,1l-20.1-0.2v7.7h19.7c0.6,0,0.7,0.1,0.7,1c0,3.3,0,5.6,0,8.3c0,0.8-0.1,1-0.7,1h-19.7v7.9
		l20.6-0.2c0.8,0,0.8,0,0.8,0.9c0,3.4,0,6,0,8.8c0,0.8-0.1,1-0.8,1H268.2z"/>
	<path fill="#231F20" d="M308.6,69.8c0-0.8,0.4-0.7,0.8-0.5c10.1,7,27.3,22.5,27.3,22.5V71.3c0-0.8,0-0.8,0.6-0.8
		c4.2,0,6.3,0,10.7,0c0.7,0,0.7,0.1,0.7,0.8c0.3,13.3,0.2,31.6,0,45.9c0,0.8-0.1,1.2-0.8,0.7c-10.6-7.7-27.2-22.6-27.2-22.6v20.9
		c0,0.6,0,0.6-0.6,0.6c-4.4,0-6.4,0-10.6,0c-0.5,0-0.7-0.4-0.7-0.7C308.3,98.7,308.3,87.9,308.6,69.8z"/>
</g>
<g>
	<g>
		
			<radialGradient id="SVGID_1_" cx="31.1131" cy="139.139" r="109.2021" gradientTransform="matrix(1 0 0 0.7765 0 -50.5957)" gradientUnits="userSpaceOnUse">
			<stop  offset="0" style="stop-color:#4D4D4D"/>
			<stop  offset="0.8258" style="stop-color:#000000"/>
			<stop  offset="1" style="stop-color:#000000"/>
		</radialGradient>
		<path fill="url(#SVGID_1_)" d="M58.8,56c-2.6-9.1-6.6-16.2-6.6-16.2l-8.4-2.9l-8.4,2.9c0,0-4,7.2-6.6,16.2
			c-1.4,5-15.7,65.3-15.7,66.8c0,3.8,28.9,23.7,30.6,23.7c1.8,0,30.6-20.8,30.6-24.5C74.5,120.4,60.2,61,58.8,56z"/>
		<g>
			
				<radialGradient id="SVGID_2_" cx="29.5014" cy="94.3762" r="29.6537" gradientTransform="matrix(1 0 0 0.7765 0 -50.5957)" gradientUnits="userSpaceOnUse">
				<stop  offset="0" style="stop-color:#4D4D4D"/>
				<stop  offset="1" style="stop-color:#000000"/>
			</radialGradient>
			<path fill="url(#SVGID_2_)" d="M43.2,40.3c4.6,0.4,8.7-0.4,8.8-0.4c0.1,0,3.3-4.2,6.4-7.4c4.8-5,5.5-8.6,4.8-10
				c-0.5-0.9-1.6-2.9-2.8-3.2c-2.2-0.6-7.8-0.1-16.5-0.1c-8.7,0-15.3-0.4-16.5,0.1c-1.1,0.5-2.3,2.3-2.8,3.2c-0.8,1.4-1,5,4.8,10
				c3.4,2.9,6.1,7.2,6.4,7.4C36.8,40.6,38.7,39.8,43.2,40.3z"/>
		</g>
	</g>
	<polygon fill="#FFFFFF" points="32.1,58.2 48.3,63.2 48.3,85.4 54.1,74.9 54.6,123.1 49,96.1 42.7,101.6 	"/>
</g>
</svg>
