<svg id="Layer_1" data-name="Layer 1" xmlns="http://www.w3.org/2000/svg" viewBox="0 0 80 80"><defs><style>.cls-1{fill:#00598e;}</style></defs><title>Artboard 1</title><path class="cls-1" d="M57,15.5C53,13,49.25,12,45.48,9.57,43.16,8,39.92,4.24,37.21,1c-.52,5.19-2.1,7.29-3.91,8.8-3.83,3-6.23,3.91-9.54,5.71C21,16.93,5.88,25.95,5.88,45.34S22.2,79,40.3,79,74.12,65.85,74.12,45.94,59.39,17,57,15.5Zm.43,56.43a16.21,16.21,0,0,1-7.9,3.16c-4.07.37-9.54.6-12.84-2.4a1.09,1.09,0,0,1,0-1.58,1.77,1.77,0,0,1,1.12-.52c.44,0,.38,0,.61.15,1.5,1.2,3.76,2.18,8.57,2.18s8.19-1.36,9.69-2.48c.68-.52,1-.08,1.05.22A1.17,1.17,0,0,1,57.41,71.93ZM44.26,65.09a13.72,13.72,0,0,1,3.46-2.48,6.66,6.66,0,0,1,3.16-.45,6.25,6.25,0,0,1,3.39.68A5.93,5.93,0,0,1,56,65.54a1.06,1.06,0,0,1-.6,1.5c-.52.3-.6.15-1.12-.82s-1-2-3.61-2-3.46.9-4.73,2-1.72,1.42-2.18.82S43.44,65.84,44.26,65.09Zm19.94.59c-2.71-.22-8.12-8.64-11.57-8.8C48.27,56.74,38.8,66,31.36,66c-4.51,0-5.86-.68-7.36-1.65-2.28-1.57-3.41-4-3.33-7.28.08-5.86,5.56-11.34,12.47-11.42,8.8-.08,14.88,8.72,19.32,8.64,3.76-.08,11-7.43,14.51-7.43,3.76,0,4.81,3.91,4.81,6.23a18.5,18.5,0,0,1-2.55,9.17C67.42,64.86,66.3,65.83,64.2,65.68Z"/></svg>