<?xml version="1.0" encoding="utf-8"?>
<!-- Generator: Adobe Illustrator 21.1.0, SVG Export Plug-In . SVG Version: 6.00 Build 0)  -->
<svg version="1.1" id="PDF" xmlns="http://www.w3.org/2000/svg" xmlns:xlink="http://www.w3.org/1999/xlink" x="0px" y="0px"
	 viewBox="0 0 80 80" style="enable-background:new 0 0 80 80;" xml:space="preserve">
<style type="text/css">
	.st0{fill:#FFFFFF;}
	.st1{fill:#E80723;}
	.st2{fill:none;stroke:#E80723;stroke-width:2.1048;}
</style>
<title>Artboard 1</title>
<g>
	<polygon class="st0" points="12.2,78.3 12.2,1.7 50.5,1.7 67.8,19.7 67.8,78.3 	"/>
	<path class="st1" d="M49.7,3.4l16.4,17v56.3H13.9V3.4H49.7 M51.2,0H10.5v80h59V19L51.2,0z"/>
	<polyline class="st1" points="69.3,20.7 49.5,20.7 49.5,0.8 	"/>
	<path id="path4539" class="st2" d="M12.1,66.7c-0.4,8.4,25.2-3.5,43.7-29.7c6-8.9-1.9-9.1-4.8-2c-9.2,22.5-3.6,45.7,2.3,43
		C61,75.6,49.2,64.6,39,62.7C34.1,61.8,12.6,57.9,12.1,66.7z"/>
</g>
</svg>
