<?xml version="1.0" encoding="utf-8"?>
<!-- Generator: Adobe Illustrator 21.1.0, SVG Export Plug-In . SVG Version: 6.00 Build 0)  -->
<svg version="1.1" id="Layer_1" xmlns="http://www.w3.org/2000/svg" xmlns:xlink="http://www.w3.org/1999/xlink" x="0px" y="0px"
	 viewBox="0 0 80 80" style="enable-background:new 0 0 80 80;" xml:space="preserve">
<style type="text/css">
	.st0{fill:#0077B5;}
</style>
<path class="st0" d="M40,2.3c-20.8,0-37.8,17-37.8,37.8s17,37.8,37.8,37.8s37.8-17,37.8-37.8S60.8,2.3,40,2.3z M30.8,55.8H23V31.2
	h7.6v24.6H30.8z M26.8,28.2c-2.4,0-4.1-1.6-4.1-3.8s1.6-3.8,4.1-3.8s4.1,1.6,4.1,3.8C31.1,26.3,29.5,28.2,26.8,28.2z M58.7,55.8
	h-7.6V42c0-3.2-1.1-5.4-3.8-5.4c-2.2,0-3.2,1.4-4.1,3C43,40.1,43,40.7,43,41.5v14.3h-7.6V39c0-3,0-5.7-0.3-7.8h6.8l0.3,3.5h0.3
	c1.1-1.6,3.5-4.1,7.6-4.1c5.1,0,8.9,3.2,8.9,10.5v14.6H58.7z"/>
<rect x="2.2" y="2" class="st0" width="75.6" height="14.3"/>
<rect x="2.2" y="57.7" class="st0" width="75.6" height="20.3"/>
<rect x="67.9" y="1.9" class="st0" width="10" height="72.9"/>
<rect x="2.1" y="2" class="st0" width="10" height="72.9"/>
</svg>
