<svg id="Layer_1" data-name="Layer 1" xmlns="http://www.w3.org/2000/svg" viewBox="0 0 80 80"><defs><style>.cls-1{fill:#60aadd;}</style></defs><title>Artboard 1</title><g id="Layer_5" data-name="Layer 5"><path class="cls-1" d="M2,2V78H78V2ZM57.7,31.6v1.1c0,12.2-8.9,26.2-25,26.2a23.4,23.4,0,0,1-13.4-4.2,14.79,14.79,0,0,0,2.2.1,17.47,17.47,0,0,0,10.9-3.9,9,9,0,0,1-8.2-6.3,8.6,8.6,0,0,0,1.6.1,9.08,9.08,0,0,0,2.3-.3,9.05,9.05,0,0,1-7-9v-.1A8.43,8.43,0,0,0,25,36.4a9,9,0,0,1-3.9-7.6,10.82,10.82,0,0,1,1.1-4.7,24.45,24.45,0,0,0,18.1,9.6,13.8,13.8,0,0,1-.3-2,9,9,0,0,1,8.7-9.2A8.19,8.19,0,0,1,55,25.4a14.47,14.47,0,0,0,5.6-2.3,8.94,8.94,0,0,1-3.8,5.1,22.94,22.94,0,0,0,5.1-1.5A11.76,11.76,0,0,1,57.7,31.6Z"/></g></svg>