<svg id="Block" xmlns="http://www.w3.org/2000/svg" viewBox="0 0 18 18"><defs><style>.cls-1{fill:none;stroke:#535454;stroke-miterlimit:10;stroke-width:1.5px;}.cls-2{fill:#535454;}</style></defs><title>Artboard 1</title><g id="_Group_" data-name="&lt;Group&gt;"><rect id="_Rectangle_" data-name="&lt;Rectangle&gt;" class="cls-1" x="2" y="2" width="14" height="14"/></g><path class="cls-2" d="M4.85,4.92H10.1c.85,0,2.76.06,2.76,2a1.74,1.74,0,0,1-1.56,1.81v0a1.84,1.84,0,0,1,1.85,2c0,1.89-1.19,2.3-3.52,2.3H4.88V11.41h.81V6.59H4.85ZM8.13,8.15H9.24c.76,0,1.17-.28,1.17-.81,0-.75-.75-.75-1.4-.75H8.13Zm0,3.25H9.45c.88,0,1.25-.27,1.25-1s-.54-.93-1.22-.93H8.13Z"/></svg>