<svg id="Layer_28" data-name="Layer 28" xmlns="http://www.w3.org/2000/svg" viewBox="0 0 18 18"><defs><style>.cls-1{fill:#535454;}</style></defs><title>Artboard 1</title><path class="cls-1" d="M.77,10.77V10h.37V8H.77V7.23h1.8V8H2.2V8.6H3.52V8H3.15V7.23H5V8H4.58V10H5v.72H3.15V10h.37V9.4H2.2V10h.37v.72Z"/><path class="cls-1" d="M5.34,8.57V7.23H8.81V8.57H8.15L8,8H7.6V10H8v.72H6.14V10h.41V8H6.14L6,8.57Z"/><path class="cls-1" d="M9.16,10.77V10h.3V8h-.3V7.23h1.66l.6,1.47h0L12,7.23H13.7V8h-.3V10h.3v.72H12V10h.36V8.34h0L11.68,10h-.5l-.72-1.7h0V10h.36v.72Z"/><path class="cls-1" d="M14,10.77V10h.36V8H14V7.23h1.78V8h-.36V10h.93l.16-.69h.68v1.41Z"/></svg>