<svg id="events" xmlns="http://www.w3.org/2000/svg" viewBox="0 0 18 18"><defs><style>.cls-1{fill:none;stroke:#535454;stroke-miterlimit:10;stroke-width:1.36px;}.cls-2{fill:#535454;}</style></defs><title>Artboard 1</title><line class="cls-1" x1="5.45" y1="4.25" x2="5.45" y2="2.25"/><line class="cls-1" x1="12.63" y1="4.25" x2="12.63" y2="2.25"/><rect id="_Rectangle_" data-name="&lt;Rectangle&gt;" class="cls-2" x="4.45" y="6.07" width="1.88" height="1.88"/><rect id="_Rectangle_2" data-name="&lt;Rectangle&gt;" class="cls-2" x="4.45" y="8.74" width="1.88" height="1.88"/><rect id="_Rectangle_3" data-name="&lt;Rectangle&gt;" class="cls-2" x="4.45" y="11.41" width="1.88" height="1.88"/><rect id="_Rectangle_4" data-name="&lt;Rectangle&gt;" class="cls-2" x="6.88" y="6.07" width="1.88" height="1.88"/><rect id="_Rectangle_5" data-name="&lt;Rectangle&gt;" class="cls-2" x="6.88" y="8.74" width="1.88" height="1.88"/><rect id="_Rectangle_6" data-name="&lt;Rectangle&gt;" class="cls-2" x="6.88" y="11.41" width="1.88" height="1.88"/><rect id="_Rectangle_7" data-name="&lt;Rectangle&gt;" class="cls-2" x="9.31" y="6.07" width="1.88" height="1.88"/><rect id="_Rectangle_8" data-name="&lt;Rectangle&gt;" class="cls-2" x="9.31" y="8.74" width="1.88" height="1.88"/><rect id="_Rectangle_9" data-name="&lt;Rectangle&gt;" class="cls-2" x="9.31" y="11.41" width="1.88" height="1.88"/><rect id="_Rectangle_10" data-name="&lt;Rectangle&gt;" class="cls-2" x="11.75" y="6.07" width="1.88" height="1.88"/><rect id="_Rectangle_11" data-name="&lt;Rectangle&gt;" class="cls-2" x="11.75" y="8.74" width="1.88" height="1.88"/><rect id="_Rectangle_12" data-name="&lt;Rectangle&gt;" class="cls-2" x="11.75" y="11.41" width="1.88" height="1.88"/><g id="_Rectangle_13" data-name="&lt;Rectangle&gt;"><path class="cls-2" d="M14.6,5v9.3H3.4V5H14.6M16,3.64H2v12.1H16V3.64Z"/></g></svg>