<svg id="pullquote" xmlns="http://www.w3.org/2000/svg" viewBox="0 0 18 18"><defs><style>.cls-1{fill:#535454;}</style></defs><title>Artboard 1</title><g id="_Group_" data-name="&lt;Group&gt;"><path id="_Compound_Path_" data-name="&lt;Compound Path&gt;" class="cls-1" d="M2.06,12.87c2.33-.42,4-2,4-3.79,0-.21-.14-.21-.28-.1a2.57,2.57,0,0,1-1.36.38A2.21,2.21,0,0,1,2.26,7,2.61,2.61,0,0,1,4.87,4.42C6.85,4.42,8,6,8,8.14c0,3.51-3.13,5.46-5.74,5.63Zm7.06,0c2.36-.42,4-2,4-3.79,0-.21-.14-.21-.28-.1a2.65,2.65,0,0,1-1.35.38A2.25,2.25,0,0,1,9.32,7,2.67,2.67,0,0,1,12,4.42c2,0,3.09,1.57,3.09,3.72,0,3.51-3.13,5.46-5.73,5.63Z"/></g></svg>