<svg id="services" xmlns="http://www.w3.org/2000/svg" viewBox="0 0 18 18"><defs><style>.cls-1{fill:#535454;}.cls-2{fill:#fff;}.cls-3{fill:none;stroke:#535454;stroke-miterlimit:10;stroke-width:0.51px;}</style></defs><title>Artboard 1</title><rect class="cls-1" x="4.11" y="14.18" width="8.77" height="0.97"/><path class="cls-1" d="M6.49,2.15h3.82A1.48,1.48,0,0,1,11.8,3.63v10.7a0,0,0,0,1,0,0H5a0,0,0,0,1,0,0V3.63A1.48,1.48,0,0,1,6.49,2.15Z"/><rect class="cls-2" x="5.96" y="4" width="5.07" height="2.4"/><path class="cls-3" d="M11.32,5.43l1.47,1.43a5.35,5.35,0,0,0,.38,4.61c.59,1.06,1.28,1.48,1,2.13-.32.89-3.19.33-2.87-2.45"/></svg>