<svg id="social_media" data-name="social media" xmlns="http://www.w3.org/2000/svg" viewBox="0 0 18 18"><defs><style>.cls-1{fill:#535454;}</style></defs><title>Artboard 1</title><g id="_Group_" data-name="&lt;Group&gt;"><path id="_Compound_Path_" data-name="&lt;Compound Path&gt;" class="cls-1" d="M15.1,3.2a2.35,2.35,0,0,0-1.72-.72H5.25a2.35,2.35,0,0,0-1.72.72,2.35,2.35,0,0,0-.72,1.72V13a2.35,2.35,0,0,0,.72,1.72,2.35,2.35,0,0,0,1.72.72h8.13A2.44,2.44,0,0,0,15.81,13V4.92A2.35,2.35,0,0,0,15.1,3.2Zm-1.22,6H12.4v5.37H10.18V9.17H9.07V7.31h1.11V6.21a2.58,2.58,0,0,1,.56-1.8,2.4,2.4,0,0,1,1.84-.61h1.48V5.65h-.93q-.47,0-.61.17a1,1,0,0,0-.13.58v.92h1.68Zm0,0"/></g></svg>